# xmcd
#
# Track frame offsets:
#	150
#	13714
#	25187
#	46452
#	65191
#	71114
#	88797
#	122774
#	137504
#	152979
#	168705
#	187775
#	204169
#	219470
#	240396
#	261994
#	273468
#	288016
#
# Disc length: 4046 seconds
#
# Revision: 1
# Processed by: cddbd v1.4PL0 Copyright (c) Steve Scherf et al.
# Submitted via: audiograbber 1.80
#
DISCID=090fcc12
DTITLE=Blue Spirit - Cei Mai Frumosi Ani!
DYEAR=1900
DGENRE=
TTITLE0=Oh, Da ! (Fleetwood Mac)
TTITLE1=Prins in trafic (Jimi Hendrix)
TTITLE2=N-are ton la telefon (T Rex)
TTITLE3=Vietnam (Country Joe Mc Donald)
TTITLE4=Cine te-a speriat (Jim Morrison)
TTITLE5=Iubeste-ma departe (The Doors)
TTITLE6=As vrea sa stii (Fleetwood Mac)
TTITLE7=Trenul asta merge inapoi (Taste)
TTITLE8=Lady Jane (Rolling Stones)
TTITLE9=Doamna in negru (Uriah Heep)
TTITLE10=Totu-i numai pentru noi (Domino)
TTITLE11=Lenes in amiaza soarelui (The Kinks)
TTITLE12=Generatia anilor de ieri (Sfinx)
TTITLE13=Ranitul dintre linii (Mircea Bolodan)
TTITLE14=Nu stiu cat mai rezist (Richie Havens)
TTITLE15=Prins in trafic (FM radio edit)
TTITLE16=Iubeste-ma departe (FM radio edit)
TTITLE17=N-are ton la telefon (FM radio edit))
EXTD=
EXTT0=
EXTT1=
EXTT2=
EXTT3=
EXTT4=
EXTT5=
EXTT6=
EXTT7=
EXTT8=
EXTT9=
EXTT10=
EXTT11=
EXTT12=
EXTT13=
EXTT14=
EXTT15=
EXTT16=
EXTT17=
PLAYORDER=
